<svg width="35" height="42" fill="none" xmlns="http://www.w3.org/2000/svg"><path d="M8.59 0a.955.955 0 0 0-.675 1.63l2.503 2.501c-2.84 2.085-4.69 5.439-4.69 9.233h22.908c0-3.794-1.85-7.148-4.69-9.233l2.502-2.502a.955.955 0 0 0-1.35-1.35l-2.83 2.83a11.39 11.39 0 0 0-5.086-1.2c-1.83 0-3.552.438-5.086 1.2L9.266.28A.952.952 0 0 0 8.59 0Zm2.864 7.636h1.91v1.91h-1.91v-1.91Zm9.546 0h1.91v1.91H21v-1.91ZM1.91 15.273A1.91 1.91 0 0 0 0 17.182v11.454a1.91 1.91 0 0 0 3.818 0V17.182a1.91 1.91 0 0 0-1.909-1.91Zm3.817 0v15.273a1.91 1.91 0 0 0 1.91 1.909h1.908v6.681a2.865 2.865 0 0 0 5.728 0v-6.681h3.818v6.681a2.865 2.865 0 0 0 5.727 0v-6.681h1.91a1.91 1.91 0 0 0 1.908-1.91V15.274H5.727Zm26.728 0a1.91 1.91 0 0 0-1.91 1.909v11.454a1.91 1.91 0 0 0 3.819 0V17.182a1.91 1.91 0 0 0-1.91-1.91Z" fill="#fff"/></svg>