<?xml version="1.0" encoding="UTF-8" standalone="no"?>
<svg
   width="40.040001"
   height="50"
   viewBox="0 0 40.040001 50"
   version="1.1"
   xml:space="preserve"
   id="svg16"
   sodipodi:docname="basic-download-ui-svgrepo-com.svg"
   inkscape:version="1.1.2 (0a00cf5339, 2022-02-04)"
   xmlns:inkscape="http://www.inkscape.org/namespaces/inkscape"
   xmlns:sodipodi="http://sodipodi.sourceforge.net/DTD/sodipodi-0.dtd"
   xmlns="http://www.w3.org/2000/svg"
   xmlns:svg="http://www.w3.org/2000/svg"><defs
     id="defs20" /><sodipodi:namedview
     id="namedview18"
     pagecolor="#ffffff"
     bordercolor="#666666"
     borderopacity="1.0"
     inkscape:pageshadow="2"
     inkscape:pageopacity="0.0"
     inkscape:pagecheckerboard="0"
     showgrid="false"
     inkscape:zoom="12.734375"
     inkscape:cx="16.72638"
     inkscape:cy="22.144785"
     inkscape:window-width="1920"
     inkscape:window-height="1004"
     inkscape:window-x="0"
     inkscape:window-y="39"
     inkscape:window-maximized="1"
     inkscape:current-layer="svg16" /><style
     type="text/css"
     id="style2">
	.st0{fill:#333333;}
	.st1{fill:none;stroke:#333333;stroke-width:32;stroke-linecap:round;stroke-linejoin:round;stroke-miterlimit:10;}
</style><g
     id="Layer_1" /><g
     id="Layer_2"
     transform="matrix(0.10941158,0,0,0.10941158,-7.9892342,-3.0088186)"
     style="fill:#ffffff"><g
       id="g13"
       style="fill:#ffffff"><g
         id="g7"
         style="fill:#ffffff"><path
           class="st0"
           d="M 360.76,118.53 H 319.9 c -8.84,0 -16,7.16 -16,16 0,8.84 7.16,16 16,16 h 40.86 c 25.49,0 46.22,20.74 46.22,46.22 v 209.52 c 0,25.49 -20.74,46.22 -46.22,46.22 H 151.24 c -25.49,0 -46.22,-20.74 -46.22,-46.22 V 196.75 c 0,-25.49 20.74,-46.22 46.22,-46.22 h 40.86 c 8.84,0 16,-7.16 16,-16 0,-8.84 -7.16,-16 -16,-16 h -40.86 c -43.13,0 -78.22,35.09 -78.22,78.22 v 209.52 c 0,43.13 35.09,78.22 78.22,78.22 h 209.52 c 43.13,0 78.22,-35.09 78.22,-78.22 V 196.75 c 0,-43.13 -35.09,-78.22 -78.22,-78.22 z"
           id="path5"
           style="fill:#ffffff" /></g><g
         id="g11"
         style="fill:#ffffff"><path
           class="st0"
           d="m 189.08,267.9 c -6.25,-6.25 -16.38,-6.25 -22.63,0 -6.25,6.25 -6.25,16.38 0,22.63 l 78.22,78.22 c 0.38,0.38 0.77,0.73 1.18,1.07 0.17,0.14 0.35,0.26 0.52,0.39 0.24,0.18 0.48,0.37 0.74,0.54 0.22,0.15 0.44,0.27 0.66,0.4 0.23,0.14 0.45,0.28 0.68,0.4 0.23,0.12 0.47,0.23 0.7,0.34 0.24,0.11 0.47,0.23 0.72,0.33 0.23,0.1 0.46,0.17 0.7,0.26 0.26,0.09 0.51,0.19 0.78,0.27 0.24,0.07 0.47,0.12 0.71,0.18 0.27,0.07 0.53,0.14 0.81,0.2 0.28,0.06 0.56,0.09 0.83,0.13 0.24,0.03 0.47,0.08 0.71,0.1 0.52,0.05 1.05,0.08 1.58,0.08 0.53,0 1.05,-0.03 1.58,-0.08 0.24,-0.02 0.48,-0.07 0.71,-0.1 0.28,-0.04 0.56,-0.07 0.83,-0.13 0.27,-0.05 0.54,-0.13 0.8,-0.2 0.24,-0.06 0.48,-0.11 0.71,-0.18 0.26,-0.08 0.52,-0.18 0.78,-0.27 0.23,-0.08 0.47,-0.16 0.7,-0.26 0.24,-0.1 0.48,-0.22 0.72,-0.33 0.23,-0.11 0.47,-0.21 0.7,-0.34 0.23,-0.12 0.45,-0.27 0.68,-0.4 0.22,-0.13 0.45,-0.26 0.67,-0.4 0.25,-0.17 0.49,-0.36 0.74,-0.54 0.17,-0.13 0.35,-0.25 0.52,-0.39 0.41,-0.34 0.81,-0.69 1.18,-1.07 l 78.22,-78.22 c 6.25,-6.25 6.25,-16.38 0,-22.63 -6.25,-6.25 -16.38,-6.25 -22.63,0 L 272,318.82 V 43.5 c 0,-8.84 -7.16,-16 -16,-16 -8.84,0 -16,7.16 -16,16 v 275.32 z"
           id="path9"
           style="fill:#ffffff" /></g></g></g></svg>
