<svg width="80" height="93" viewBox="0 0 80 93" fill="none" xmlns="http://www.w3.org/2000/svg">
<path d="M30.1521 67.0619C29.4783 66.4013 29.4612 65.3211 30.1138 64.6394L42.8523 51.3339C43.5001 50.6574 43.4887 49.5867 42.8267 48.924L40.9888 47.0844C40.3333 46.4283 39.2765 46.4094 38.598 47.0416L33.4127 51.8728C32.7146 52.5232 31.6211 52.4817 30.9742 51.7801L23.3008 43.458C22.692 42.7975 22.6925 41.7797 23.3022 41.1199L42.9067 19.9077C43.5293 19.234 43.515 18.1902 42.8741 17.5339L41.0119 15.6267C40.3494 14.9483 39.2636 14.9333 38.5827 15.5931L33.5705 20.4504C32.8906 21.1092 31.8069 21.0955 31.144 20.4198L26.4947 15.6801C25.8095 14.9816 24.6811 14.9939 24.0113 15.7072L22.2325 17.6014C21.6015 18.2735 21.6112 19.3239 22.2548 19.9841L27.2293 25.0877C27.8615 25.7364 27.8836 26.7641 27.2799 27.4394L19.1816 36.4977C18.5128 37.2459 17.3488 37.2657 16.655 36.5406L11.7113 31.3747C11.0266 30.6591 9.88133 30.6675 9.20712 31.3929L7.36483 33.3749C6.74654 34.0401 6.75064 35.0714 7.37421 35.7317L27.2222 56.748C27.8545 57.4175 27.8486 58.4662 27.209 59.1285L26.2885 60.0817C25.6095 60.7849 24.4824 60.7823 23.8067 60.0759L19.0126 55.0642C18.2915 54.3103 17.0714 54.3661 16.4218 55.1825L15.0809 56.8683C14.5455 57.5414 14.5883 58.5066 15.1813 59.1295L35.4666 80.4415C35.7716 80.7618 35.9417 81.1873 35.9417 81.6297V90.7646C35.9417 91.7165 36.7125 92.4875 37.6633 92.4875H42.2962C43.2471 92.4875 44.0179 91.7165 44.0179 90.7646V82.2723C44.0179 81.8547 44.1695 81.4513 44.4445 81.1372L57.3127 66.4345C57.8877 65.7775 57.8805 64.7939 57.2959 64.1454L52.7306 59.0814C52.1455 58.4323 52.1389 57.4475 52.7153 56.7906L53.424 55.9829C54.0755 55.2404 55.2164 55.1972 55.9221 55.8884L60.8637 60.7288C61.5516 61.4026 62.6579 61.3812 63.3192 60.6812L72.0482 51.4404C72.6923 50.7585 72.6726 49.6862 72.0039 49.0284L69.9522 47.01C69.277 46.3457 68.1926 46.3517 67.5248 47.0233L63.0384 51.5352C62.3677 52.2098 61.2773 52.2124 60.6033 51.5409L52.636 43.604C51.9999 42.9703 51.957 41.9541 52.5373 41.269L57.2486 35.7069C57.8066 35.048 57.7911 34.0776 57.2121 33.4371L55.5646 31.6148C54.8969 30.8762 53.7444 30.8563 53.0517 31.5714L44.3301 40.5734C43.7118 41.2117 43.6803 42.216 44.2575 42.8919L49.3443 48.8481C49.9129 49.5139 49.8919 50.5006 49.2954 51.1415L44.2691 56.5425C43.6799 57.1757 43.6514 58.1479 44.2025 58.8147L48.9837 64.599C49.5373 65.2688 49.5056 66.2463 48.9098 66.8789L41.018 75.2571C40.3568 75.959 39.2487 75.9811 38.5602 75.306L30.1521 67.0619Z" fill="#0F8B1A"/>
<path d="M41.8196 67.3797C40.6761 68.5451 38.7851 68.5288 37.6442 67.361C36.5272 66.2175 36.5258 64.3732 37.6579 63.2447C38.8034 62.1027 40.6732 62.1272 41.8059 63.2818C42.9184 64.4156 42.9319 66.2459 41.8196 67.3797Z" fill="#0F8B1A"/>
<path d="M12.3914 51.9048C11.2437 53.0724 9.3627 53.0722 8.21528 51.9044C7.12233 50.792 7.0918 49.0178 8.14581 47.8685L8.21778 47.7901C9.35176 46.5534 11.2898 46.5198 12.466 47.7164C13.5876 48.8575 13.5876 50.6879 12.466 51.8289L12.3914 51.9048Z" fill="#0F8B1A"/>
<path d="M5.35044 44.4264C4.16476 45.673 2.19202 45.7167 0.952297 44.5239C-0.279338 43.3389 -0.321855 41.3806 0.857174 40.1432L0.952736 40.0429C2.17603 38.759 4.22375 38.7599 5.44592 40.0449C6.58629 41.2438 6.58629 43.1271 5.44592 44.326L5.35044 44.4264Z" fill="#F38547"/>
<path d="M30.1193 39.9555C28.8739 41.1879 28.8603 43.1965 30.089 44.4457C31.3102 45.6874 33.3028 45.714 34.5568 44.5054L34.619 44.4455C35.9047 43.2063 35.9182 41.1508 34.6489 39.8948C33.411 38.6698 31.4185 38.6698 30.1806 39.8948L30.1193 39.9555Z" fill="#F38547"/>
<path d="M15.495 28.5746C14.3879 27.4042 14.4004 25.5683 15.5233 24.413C16.7291 23.1724 18.7301 23.2044 19.8956 24.483L20.073 24.6776C21.1634 25.8738 21.1099 27.7196 19.9522 28.8505C18.7531 30.0219 16.8278 29.9838 15.6759 28.7659L15.495 28.5746Z" fill="#EBC706"/>
<path d="M37.407 36.0448C36.4085 34.9184 36.4212 33.2193 37.4364 32.1079C38.5602 30.8777 40.48 30.8265 41.6676 31.9951L41.9538 32.2767C43.1004 33.4051 43.1341 35.244 42.0296 36.4137C40.8389 37.6748 38.8239 37.6431 37.6734 36.3452L37.407 36.0448Z" fill="#8B340F"/>
<path d="M59.9136 12.7716C58.7685 11.5807 58.7935 9.67736 59.9485 8.49609C61.1612 7.25608 63.1791 7.25453 64.3703 8.51513C65.491 9.70113 65.4661 11.5764 64.3351 12.7525C63.1332 14.0026 61.1155 14.0217 59.9136 12.7716Z" fill="#F38547"/>
<path d="M15.8784 12.7716C14.7334 11.5807 14.7583 9.67736 15.9134 8.49609C17.126 7.25608 19.1439 7.25453 20.3351 8.51513C21.4558 9.70113 21.4309 11.5764 20.3 12.7525C19.098 14.0026 17.0804 14.0217 15.8784 12.7716Z" fill="#0F8B1A"/>
<path d="M30.1582 13.26C29.0056 12.0551 28.9855 10.1618 30.1122 8.93263C31.3552 7.57659 33.4879 7.56375 34.7471 8.90464L34.8172 8.97923C36.0057 10.2447 35.9527 12.2321 34.6987 13.4325C33.4371 14.6401 31.4362 14.5959 30.2289 13.334L30.1582 13.26Z" fill="#F38547"/>
<path d="M37.5724 5.23768C36.4855 4.05345 36.4864 2.23353 37.5743 1.05035L37.6212 0.999454C38.8232 -0.307724 40.8756 -0.33665 42.1139 0.93614C43.3014 2.15676 43.2802 4.1082 42.0662 5.30257L42.017 5.35107C40.77 6.57793 38.7552 6.52654 37.5724 5.23768Z" fill="#0F8B1A"/>
<path d="M44.8783 12.9371C43.7768 11.7344 43.8341 9.87248 45.0073 8.73979C46.1963 7.59195 48.088 7.61926 49.2434 8.80096L49.3657 8.92603C50.5053 10.0916 50.5105 11.9531 49.3777 13.1252C48.1727 14.3717 46.1674 14.3446 44.9965 13.0661L44.8783 12.9371Z" fill="#0F8B1A"/>
<path d="M52.3398 21.0044C51.1507 19.8358 51.119 17.9284 52.2686 16.7207C53.4708 15.4577 55.4846 15.4576 56.6868 16.7207C57.8363 17.9284 57.8042 19.8359 56.6151 21.0044C55.4282 22.1706 53.5264 22.1707 52.3398 21.0044Z" fill="#8B340F"/>
<path d="M59.5429 28.6189C58.4511 27.4634 58.4609 25.6528 59.5652 24.5091C60.7053 23.3282 62.5861 23.2955 63.7668 24.4358L63.8407 24.5073C65.014 25.6407 65.0566 27.5082 63.9361 28.6938C62.7625 29.9358 60.7871 29.9357 59.6136 28.6937L59.5429 28.6189Z" fill="#0F8B1A"/>
<path d="M59.7052 39.9106C60.8368 38.6929 62.7512 38.6551 63.93 39.8272C65.0592 40.95 65.0901 42.7685 63.9994 43.929L63.8319 44.1071C62.7029 45.3086 60.8076 45.3463 59.6317 44.1908C58.4958 43.0746 58.4546 41.2562 59.5388 40.0896L59.7052 39.9106Z" fill="#F38547"/>
<path d="M74.039 44.1431C72.8762 42.9488 72.8861 41.0419 74.0612 39.8598C75.2538 38.66 77.1943 38.66 78.387 39.8598L78.5256 39.9993C79.6446 41.125 79.7149 42.9209 78.6873 44.1306C77.5225 45.5019 75.4313 45.573 74.1762 44.284L74.039 44.1431Z" fill="#8B340F"/>
</svg>
