<?xml version="1.0" encoding="UTF-8" standalone="no"?>
<svg
   version="1.1"
   id="Layer_1"
   x="0px"
   y="0px"
   viewBox="0 0 42.000001 37.400002"
   xml:space="preserve"
   sodipodi:docname="ftp.svg"
   inkscape:version="1.1.2 (0a00cf5339, 2022-02-04)"
   width="42"
   height="37.400002"
   xmlns:inkscape="http://www.inkscape.org/namespaces/inkscape"
   xmlns:sodipodi="http://sodipodi.sourceforge.net/DTD/sodipodi-0.dtd"
   xmlns="http://www.w3.org/2000/svg"
   xmlns:svg="http://www.w3.org/2000/svg"><defs
     id="defs9" /><sodipodi:namedview
     id="namedview7"
     pagecolor="#ffffff"
     bordercolor="#666666"
     borderopacity="1.0"
     inkscape:pageshadow="2"
     inkscape:pageopacity="0.0"
     inkscape:pagecheckerboard="0"
     showgrid="false"
     inkscape:zoom="7.4524506"
     inkscape:cx="61.322111"
     inkscape:cy="44.012368"
     inkscape:window-width="1920"
     inkscape:window-height="1004"
     inkscape:window-x="0"
     inkscape:window-y="39"
     inkscape:window-maximized="1"
     inkscape:current-layer="Layer_1"
     width="42px" /><g
     id="g4"
     style="fill:#ffffff"
     transform="scale(0.34179688)"><path
       d="m 14.69,16.44 h 3.56 V 8.63 c 0,-1.09 0.88,-1.97 1.97,-1.97 h 3.5 V 1.97 C 23.72,0.88 24.6,0 25.69,0 h 31.92 c 1.09,0 1.97,0.88 1.97,1.97 v 4.69 h 43.05 c 1.09,0 1.97,0.88 1.97,1.97 v 7.82 h 3.59 c 1.09,0 1.97,0.88 1.97,1.97 0,0.14 -0.01,0.28 -0.04,0.42 l -6.88,50.59 c -0.22,1.65 -0.95,3.18 -2.05,4.29 -1.1,1.1 -2.54,1.78 -4.25,1.78 H 70.95 v 5.86 h 2.12 c 1.54,0 2.8,1.26 2.8,2.8 v 5.06 h 10.44 c 1.25,0 2.32,0.83 2.67,1.97 h 26.1 c 3.73,0 6.14,2.07 7.2,4.71 0.4,1 0.6,2.08 0.6,3.14 0,1.06 -0.2,2.14 -0.6,3.14 -1.06,2.64 -3.47,4.71 -7.2,4.71 H 89.09 c -0.15,1.4 -1.35,2.49 -2.78,2.49 H 72.63 38.8 c -1.44,0 -2.63,-1.1 -2.78,-2.49 H 7.8 c -3.73,0 -6.14,-2.07 -7.2,-4.71 C 0.2,101.18 0,100.1 0,99.04 0,97.98 0.2,96.9 0.6,95.9 1.66,93.26 4.07,91.19 7.8,91.19 h 28.32 c 0.36,-1.14 1.42,-1.97 2.67,-1.97 h 8.74 v -5.06 c 0,-1.54 1.26,-2.8 2.8,-2.8 h 1.69 V 75.5 H 24.38 c -1.71,0 -3.19,-0.69 -4.3,-1.79 -1.11,-1.11 -1.83,-2.66 -2.01,-4.33 L 12.74,18.64 c -0.11,-1.08 0.67,-2.04 1.75,-2.15 0.07,-0.04 0.14,-0.04 0.2,-0.05 z m 16.69,17.99 h 16.29 v 4.58 H 38 v 3.72 h 8.26 v 4.3 H 38 v 8.71 H 31.39 V 34.43 Z m 18.7,0 H 70.1 V 39.7 H 63.38 V 55.75 H 56.79 V 39.7 h -6.71 z m 23.33,0 h 10.95 c 2.38,0 4.17,0.57 5.35,1.7 1.19,1.14 1.78,2.75 1.78,4.84 0,2.15 -0.65,3.84 -1.94,5.05 -1.3,1.21 -3.27,1.82 -5.93,1.82 h -3.6 v 7.91 h -6.61 z m 6.62,9.09 h 1.61 c 1.27,0 2.16,-0.22 2.68,-0.66 0.51,-0.44 0.77,-1 0.77,-1.69 0,-0.67 -0.22,-1.24 -0.67,-1.7 -0.44,-0.47 -1.28,-0.7 -2.51,-0.7 H 80.03 Z M 56.38,81.34 H 66.59 V 75.55 H 56.38 Z m 32.73,13.54 v 8.27 h 25.97 c 1.97,0 3.22,-1.04 3.76,-2.37 0.22,-0.54 0.33,-1.15 0.33,-1.76 0,-0.61 -0.11,-1.22 -0.33,-1.76 -0.54,-1.33 -1.79,-2.37 -3.76,-2.37 H 89.11 Z M 36,103.15 V 94.88 H 7.8 c -1.97,0 -3.22,1.04 -3.76,2.37 -0.22,0.54 -0.33,1.15 -0.33,1.76 0,0.61 0.11,1.22 0.33,1.76 0.54,1.33 1.79,2.37 3.76,2.37 H 36 Z M 20.23,20.38 h -3.35 l 5.1,48.57 c 0.08,0.78 0.39,1.47 0.87,1.95 0.4,0.4 0.92,0.64 1.53,0.64 h 72.54 c 0.59,0 1.1,-0.24 1.48,-0.62 0.49,-0.49 0.82,-1.22 0.93,-2.03 l 6.6,-48.51 z m 1.96,-9.78 v 5.83 l 78.46,-0.83 v -5 H 57.61 c -1.09,0 -1.97,-0.88 -1.97,-1.97 V 3.94 H 27.66 v 4.69 c 0,1.09 -0.88,1.97 -1.97,1.97 z"
       id="path2"
       style="fill:#ffffff" /></g></svg>
