<svg width="17" height="17" fill="none" xmlns="http://www.w3.org/2000/svg"><path d="M7.63.662C3.987 1.058 1.057 3.987.662 7.55c-.475 3.958 1.979 7.362 5.462 8.47V14.2s-.317.08-.712.08c-1.109 0-1.584-.95-1.663-1.505-.08-.317-.237-.554-.475-.792-.237-.079-.317-.079-.317-.158 0-.158.238-.158.317-.158.475 0 .87.554 1.03.791.395.634.87.792 1.108.792.316 0 .554-.08.712-.158.08-.555.317-1.109.792-1.425C5.096 11.27 3.75 10.242 3.75 8.5c0-.87.396-1.742.95-2.375-.08-.158-.158-.554-.158-1.108 0-.317 0-.792.237-1.267 0 0 1.109 0 2.217 1.03.396-.16.95-.238 1.504-.238s1.108.079 1.583.237C11.113 3.75 12.3 3.75 12.3 3.75c.158.475.158.95.158 1.267 0 .633-.079.95-.158 1.108.554.633.95 1.425.95 2.375 0 1.742-1.346 2.77-3.167 3.167.475.396.792 1.108.792 1.82V16.1c3.246-1.03 5.542-4.038 5.542-7.52 0-4.75-4.038-8.472-8.788-7.918Z" fill="#fff"/></svg>