<svg width="25" height="24" fill="none" xmlns="http://www.w3.org/2000/svg"><path d="M10.884.085C5.242.698.704 5.235.09 10.755c-.736 6.132 3.066 11.405 8.462 13.122v-2.82s-.49.122-1.103.122c-1.717 0-2.453-1.471-2.576-2.33-.122-.49-.368-.858-.736-1.226-.368-.123-.49-.123-.49-.246 0-.245.368-.245.49-.245.736 0 1.35.859 1.595 1.226.613.982 1.349 1.227 1.717 1.227.49 0 .858-.123 1.103-.245.123-.859.491-1.717 1.227-2.208-2.82-.613-4.906-2.208-4.906-4.906 0-1.349.613-2.698 1.472-3.679C6.223 8.302 6.1 7.69 6.1 6.83c0-.49 0-1.226.367-1.962 0 0 1.717 0 3.434 1.594.614-.245 1.472-.368 2.33-.368.86 0 1.718.123 2.454.368 1.594-1.594 3.433-1.594 3.433-1.594.246.736.246 1.472.246 1.962 0 .981-.123 1.472-.246 1.717.859.981 1.472 2.208 1.472 3.68 0 2.697-2.085 4.292-4.906 4.905.736.613 1.227 1.717 1.227 2.82V24c5.028-1.594 8.585-6.255 8.585-11.651 0-7.358-6.255-13.123-13.613-12.264Z" fill="#869AB8"/></svg>