<svg width="92" height="92" fill="none" xmlns="http://www.w3.org/2000/svg"><path d="M46 0C20.594 0 0 20.594 0 46c0 20.44 13.342 37.745 31.786 43.737h28.428C78.658 83.745 92 66.44 92 46 92 20.594 71.406 0 46 0Z" fill="url(#a)"/><path opacity=".05" d="M59.823 87.39 59.8 74.056c0-2.16-.506-4.268-1.477-6.18C71.298 65.27 77.611 57.6 77.611 44.468c0-5.186-1.53-9.766-4.545-13.616.23-.729.4-1.483.506-2.256.433-3.149-.053-5.207-.444-6.863l-.062-.267c-.427-1.83-.94-3.137-.961-3.193l-.255-.648-.256-.649-.694-.073-.697-.074s-.458-.048-1.152-.048c-.964 0-2.392.096-3.743.554l-.45.152c-1.702.573-3.31 1.115-5.56 2.459-.657.393-1.377.841-2.148 1.343-3.482-.863-7.228-1.302-11.15-1.302-3.96 0-7.74.442-11.245 1.313-.78-.506-1.504-.959-2.166-1.354-2.25-1.344-3.857-1.884-5.56-2.46l-.45-.15c-1.346-.459-2.776-.555-3.74-.555-.695 0-1.152.048-1.152.048l-.695.074-.69.071-.258.646-.26.651c-.022.06-.535 1.366-.963 3.2l-.062.264c-.391 1.654-.877 3.715-.444 6.86.11.797.287 1.576.529 2.326-2.956 3.832-4.453 8.386-4.453 13.547 0 13.099 6.32 20.765 19.313 23.391a13.812 13.812 0 0 0-1.04 2.815 7.47 7.47 0 0 1-1.237.316c-.547.082-1.12.124-1.7.124-1.577 0-2.817-.309-3.3-.596-.72-.428-2.006-1.672-3.252-3.491-1.065-1.553-2.726-3.584-4.582-4.433-1.605-.733-3.305-1.154-4.666-1.154-.318 0-.61.023-.865.064-1.19.189-2.183.842-2.723 1.794-.467.821-.541 1.778-.203 2.625.504 1.26 1.957 2.265 3.089 2.886.557.306 1.76 1.424 2.461 2.55.527.847.77 1.45 1.109 2.282.2.495.42 1.033.72 1.684 1.08 2.35 4.455 4.425 4.836 4.653 1.854 1.11 4.97 1.467 7.262 1.57l.282.008h.003c.552 0 1.31-.053 2.309-.164v6.01c.005 1.217-1.235 1.493-2.875 1.468l1.258.423C35.408 91.016 40.584 92 46 92s10.592-.984 15.417-2.705l1.617-.602c-1.636-.056-3.197-.322-3.211-1.302Z" fill="#000"/><path opacity=".07" d="M61.596 89.233c-.933.108-2.946-.25-2.946-1.828v-13.35c0-2.516-.754-4.947-2.153-7.02 13.605-2.2 19.962-9.413 19.962-22.567 0-5.145-1.578-9.646-4.69-13.39.315-.84.536-1.725.663-2.639.402-2.934-.037-4.797-.424-6.442l-.062-.267c-.41-1.75-.892-2.983-.913-3.033l-.255-.649-.697-.073s-.41-.044-1.033-.044c-.876 0-2.17.085-3.371.494l-.451.152c-1.642.554-3.195 1.076-5.339 2.355-.763.456-1.614.992-2.532 1.597-3.526-.923-7.341-1.392-11.355-1.392-4.053 0-7.9.471-11.452 1.403a72.207 72.207 0 0 0-2.55-1.608c-2.144-1.278-3.697-1.803-5.339-2.355l-.45-.152c-1.199-.407-2.496-.494-3.372-.494-.624 0-1.033.043-1.033.043l-.695.074-.26.651c-.02.05-.503 1.283-.913 3.034l-.062.267c-.388 1.644-.828 3.505-.423 6.44.129.936.359 1.842.686 2.7-3.053 3.726-4.598 8.204-4.598 13.328 0 13.117 6.362 20.328 19.978 22.554a12.524 12.524 0 0 0-1.87 4.517c-.76.3-1.447.497-2.05.589-.605.092-1.235.138-1.872.138-1.587 0-3.112-.297-3.887-.757-1.012-.6-2.43-2.102-3.615-3.83-.805-1.172-2.409-3.258-4.113-4.036-1.46-.667-2.985-1.05-4.188-1.05-.253 0-.483.018-.686.05-.841.133-1.536.58-1.904 1.228a1.874 1.874 0 0 0-.136 1.628c.412 1.03 1.937 1.955 2.574 2.305.77.423 2.114 1.711 2.884 2.953.578.93.851 1.603 1.199 2.454.195.481.409 1.005.699 1.638.761 1.654 3.112 3.385 4.381 4.147 1.735 1.04 4.954 1.33 6.72 1.407l.256.005c.688 0 1.84-.103 3.439-.31v7.307c0 1.791-2.28 1.863-2.838 1.863-.072 0 1.156.423 1.156.423A45.876 45.876 0 0 0 46 92c5.01 0 9.819-.828 14.331-2.307 0 0 1.337-.47 1.265-.46Z" fill="#000"/><path d="M75.311 44.468c0-5.313-1.798-9.72-4.869-13.174.334-.748.68-1.75.853-3.01.396-2.876-.07-4.6-.466-6.29-.396-1.687-.863-2.874-.863-2.874s-2.12-.216-3.917.395c-1.796.612-3.342 1.08-5.57 2.409a72.224 72.224 0 0 0-2.922 1.853c-3.548-.984-7.452-1.49-11.557-1.49-4.142 0-8.08.508-11.654 1.5a72.27 72.27 0 0 0-2.937-1.866c-2.229-1.33-3.774-1.796-5.57-2.408-1.797-.612-3.918-.395-3.918-.395s-.467 1.186-.862 2.875c-.396 1.688-.863 3.413-.467 6.288.177 1.292.536 2.314.879 3.066-3.014 3.434-4.78 7.813-4.78 13.119 0 13.76 7.434 20.042 20.978 21.7a11.434 11.434 0 0 0-2.996 6.19c-.89.39-1.916.759-2.903.906-2.54.384-5.223 0-6.516-.766-1.293-.766-2.827-2.49-3.977-4.17-.97-1.417-2.371-3.061-3.64-3.64-1.677-.767-3.308-1.054-4.216-.912-.911.145-1.341.815-1.15 1.295.19.479 1.101 1.199 2.06 1.725.96.527 2.445 1.965 3.308 3.354.961 1.55 1.15 2.445 1.964 4.216.573 1.246 2.532 2.803 3.928 3.64 1.199.72 3.593 1.13 6.183 1.247.894.041 3.008-.22 4.79-.474v8.625c0 1.47-1.345 2.588-2.739 2.33C36.24 91.236 41.015 92 46 92c4.982 0 9.759-.764 14.237-2.263-1.392.255-2.737-.863-2.737-2.332v-13.35c0-3.056-1.212-5.819-3.158-7.877 13.446-1.615 20.97-7.746 20.97-21.71ZM16.65 66.072c-.354-.182-.545-.517-.426-.754.12-.237.506-.28.86-.1.355.182.546.518.426.755-.12.237-.506.28-.86.1Zm2.787 1.737c-.186.202-.586.138-.894-.143-.309-.28-.407-.674-.221-.876.186-.203.586-.138.895.142.308.28.407.674.22.877Zm1.735 2.875c-.235.165-.633.011-.888-.345-.256-.357-.272-.782-.037-.948.235-.166.632-.012.888.345.253.356.271.782.037.948Zm2.49 2.164c-.158.258-.61.269-1.005.028-.395-.242-.588-.647-.43-.904.159-.258.61-.27 1.005-.028.396.242.59.646.43.904Zm2.356 2.118c-.49-.06-.854-.365-.812-.683.039-.317.469-.524.957-.465.49.06.853.366.811.684-.039.315-.466.524-.956.464Zm3.797.55c-.522-.03-.93-.329-.909-.665.021-.336.46-.586.983-.556.522.03.929.329.908.664-.02.338-.46.587-.982.557Zm3.583-.359c-.556 0-1.007-.29-1.007-.646 0-.357.45-.646 1.007-.646.557 0 1.008.29 1.008.646 0 .356-.453.646-1.008.646Z" fill="#fff"/><defs><linearGradient id="a" x1="0" y1="44.868" x2="92" y2="44.868" gradientUnits="userSpaceOnUse"><stop stop-color="#4C4C4C"/><stop offset="1" stop-color="#343434"/></linearGradient></defs></svg>