<svg width="92" height="92" fill="none" xmlns="http://www.w3.org/2000/svg"><path d="M92 46c0 25.403-20.597 46-46 46C20.596 92 0 71.403 0 46 0 20.596 20.596 0 46 0c25.403 0 46 20.596 46 46Z" fill="url(#a)"/><path opacity=".05" d="M54.453 67.648c0 4.422-3.308 7.514-8.048 7.514-3.947 0-8.142-2.634-8.142-7.514 0-4.84 4.195-7.452 8.142-7.452 4 0 8.047 2.56 8.047 7.452ZM46.718 18.4c-5.911 0-10.668 2.033-12.995 3.257a2.933 2.933 0 0 0-1.555 2.61v11.758c0 1.14 1.35 1.725 2.19.95 2.309-2.135 6.288-4.961 11.157-4.961 1.17 0 3.135.345 3.135 2.654 0 2.275-1.369 3.581-3.784 5.692-2.898 2.533-6.504 5.686-6.504 12.098 0 1.992.375 3.628.743 4.75.333 1.014 1.301 1.679 2.37 1.679 0 0 7.901-.014 9.033-.014 2.663 0 2.422-1.955 2.068-2.923-.228-.626-.67-1.592-.67-2.493 0-2.202 1.548-3.62 4.285-5.941 3.533-2.995 7.93-6.723 7.93-14.364.005-9.237-6.501-14.752-17.403-14.752Z" fill="#000"/><path opacity=".07" d="M46.405 61.346c3.36 0 6.898 2.042 6.898 6.302 0 4.025-3.108 6.364-6.898 6.364-3.393 0-6.992-2.204-6.992-6.364 0-4.14 3.657-6.302 6.992-6.302ZM34.47 22.547c2.185-1.169 6.465-2.997 12.25-2.997 12.907 0 16.256 7.884 16.256 13.607 0 7.006-3.967 10.467-7.369 13.354-2.263 1.918-3.742 3.37-4.39 5.285-.716 2.114.333 3.708.358 3.786.295.85.044 2.153-1.877 2.153-1.6.002-7.169.004-7.169.004-.533 0-2.116-.331-2.284-.84a14.176 14.176 0 0 1-.726-4.73c.124-6.208 3.974-8.98 6.895-11.654 2.05-1.861 3.386-3.388 3.386-5.847 0-2.153-1.408-2.912-2.505-3.28-1.382-.465-2.88-.384-3.73-.228-3.085.573-5.718 1.94-7.565 3.3-.881.65-1.946.638-2.261.311-.175.136-.423-.78-.423-1.002v-8.897c0-.186.048-.759.098-.929.173-.575.504-1.102 1.056-1.396Z" fill="#000"/><path d="M41.386 56.592c-.23-.596-.722-2.374-.722-4.129 0-9.994 10.288-10.378 10.288-17.79 0-4.667-4.612-4.955-5.437-4.955-5.237 0-9.327 2.995-11.047 4.508V23.87c1.766-1.058 5.81-3.169 12.252-3.169 14.918 0 15.106 10.253 15.106 12.457 0 11.836-12.215 12.714-12.215 20.302 0 1.582.573 2.741.826 3.13h-9.05v.003Zm5.019 16.27c-2.84 0-5.842-1.771-5.842-5.214 0-3.441 3.119-5.152 5.842-5.152 2.723 0 5.748 1.527 5.748 5.152 0 3.624-2.908 5.214-5.748 5.214Z" fill="#fff"/><defs><linearGradient id="a" x1="13.473" y1="13.473" x2="78.527" y2="78.527" gradientUnits="userSpaceOnUse"><stop stop-color="#33BEF0"/><stop offset="1" stop-color="#0A85D9"/></linearGradient></defs></svg>