<?xml version="1.0" encoding="UTF-8" standalone="no"?>
<!-- Created with Inkscape (http://www.inkscape.org/) -->

<svg
   version="1.1"
   id="svg2"
   xml:space="preserve"
   width="666.66669"
   height="333.33334"
   viewBox="0 0 666.66669 333.33334"
   sodipodi:docname="IITP_logo_short_inv_eng.svg"
   inkscape:version="1.2.2 (b0a8486541, 2022-12-01)"
   xmlns:inkscape="http://www.inkscape.org/namespaces/inkscape"
   xmlns:sodipodi="http://sodipodi.sourceforge.net/DTD/sodipodi-0.dtd"
   xmlns="http://www.w3.org/2000/svg"
   xmlns:svg="http://www.w3.org/2000/svg"><defs
     id="defs6"><clipPath
       clipPathUnits="userSpaceOnUse"
       id="clipPath30"><path
         d="M 0,0 H 500 V 250 H 0 Z"
         id="path28" /></clipPath></defs><sodipodi:namedview
     id="namedview4"
     pagecolor="#ffffff"
     bordercolor="#666666"
     borderopacity="1.0"
     inkscape:pageshadow="2"
     inkscape:pageopacity="0.0"
     inkscape:pagecheckerboard="0"
     inkscape:showpageshadow="2"
     inkscape:deskcolor="#d1d1d1"
     showgrid="false"
     inkscape:zoom="2.3009999"
     inkscape:cx="333.33334"
     inkscape:cy="167.10127"
     inkscape:window-width="1920"
     inkscape:window-height="1003"
     inkscape:window-x="0"
     inkscape:window-y="0"
     inkscape:window-maximized="1"
     inkscape:current-layer="g8" /><g
     id="g8"
     inkscape:groupmode="layer"
     inkscape:label="IITP_logo_short_inv_eng"
     transform="matrix(1.3333333,0,0,-1.3333333,0,333.33333)"><g
       id="g12"
       transform="translate(436.9229,153.7485)"><path
         d="m 0,0 -12.128,-12.599 -23.31,-24.221 -0.264,81.563 -10.242,1.947 -26.343,-70.264 -0.222,68.317 -8.597,2.529 -39.32,-64.211 -0.14,43.288 -7.274,2.839 -44.661,-51.121 -0.156,48.282 -6.494,2.535 -45.436,-52.008 -0.162,49.473 -5.714,2.231 -46.211,-52.896 -0.165,50.665 -5.242,1.509 -41.02,-68.668 -0.277,85.553 -4.335,0.76 -28.934,-84.182 -0.27,83.422 -2.772,1.104 -44.981,-50.155 4.58,-0.921 39.965,45.804 -0.294,-90.562 3.7,-0.648 28.835,82.148 -0.264,-81.5 4.702,-1.354 40.914,67.482 -0.157,-48.515 5.269,-2.056 46.091,52.06 -0.162,-50.004 6.048,-2.361 45.307,51.176 -0.158,-48.815 6.827,-2.665 44.525,50.292 -0.155,-47.627 8.052,-2.368 39.17,63.035 -0.257,-79.06 9.6,-1.825 26.137,68.358 -0.215,-66.533 9.598,-4.021 33.074,33.915 16.493,16.91 z"
         style="fill:#ffffff;fill-opacity:1;fill-rule:nonzero;stroke:none"
         id="path14" /></g><path
       d="m 310.306,70.468 h 2.451 V 49.299 h -2.451 z"
       style="fill:#ffffff;fill-opacity:1;fill-rule:nonzero;stroke:none"
       id="path16" /><path
       d="m 319.808,70.468 h 2.451 V 49.299 h -2.451 z"
       style="fill:#ffffff;fill-opacity:1;fill-rule:nonzero;stroke:none"
       id="path18" /><g
       id="g20"
       transform="translate(334.5137,68.2305)"><path
         d="M 0,0 H -7.232 V 2.237 H 9.773 V 0 H 2.481 V -18.931 H 0 Z"
         style="fill:#ffffff;fill-opacity:1;fill-rule:nonzero;stroke:none"
         id="path22" /></g><g
       id="g24"><g
         id="g26"
         clip-path="url(#clipPath30)"><g
           id="g32"
           transform="translate(349.1895,70.4678)"><path
             d="m 0,0 h 8.926 c 4.358,0 6.84,-2.449 6.84,-5.927 0,-3.539 -2.482,-6.017 -6.84,-6.017 H 2.452 v -9.224 H 0 Z m 8.745,-9.707 c 2.904,0 4.569,1.301 4.569,3.72 0,2.45 -1.665,3.751 -4.569,3.751 H 2.452 v -7.471 z"
             style="fill:#ffffff;fill-opacity:1;fill-rule:nonzero;stroke:none"
             id="path34" /></g><g
           id="g36"
           transform="translate(379.0547,70.4678)"><path
             d="m 0,0 h 9.502 c 4.267,0 6.746,-2.389 6.746,-5.806 0,-2.903 -1.724,-5.11 -4.931,-5.715 l 6.808,-9.647 h -2.904 l -6.596,9.405 H 2.451 v -9.405 H 0 Z m 9.351,-9.556 c 2.814,0 4.418,1.3 4.418,3.66 0,2.328 -1.604,3.66 -4.418,3.66 h -6.9 v -7.32 z"
             style="fill:#ffffff;fill-opacity:1;fill-rule:nonzero;stroke:none"
             id="path38" /></g><g
           id="g40"
           transform="translate(409.5264,70.5889)"><path
             d="M 0,0 H 2.329 L 11.74,-21.289 H 9.138 l -2.573,5.716 H -4.328 l -2.511,-5.716 H -9.41 Z M 5.779,-13.396 1.149,-3.084 -3.48,-13.396 Z"
             style="fill:#ffffff;fill-opacity:1;fill-rule:nonzero;stroke:none"
             id="path42" /></g><g
           id="g44"
           transform="translate(424.4443,51.1748)"><path
             d="M 0,0 V 2.722 C 1.452,1.421 4.539,0.061 7.717,0.061 c 3.116,0 5.567,1.39 5.567,3.81 0,2.57 -2.422,3.296 -5.841,4.264 -3.873,1.089 -7.049,2.116 -7.049,5.987 0,3.146 2.663,5.535 7.413,5.535 2.663,0 4.932,-0.696 6.627,-1.755 v -2.509 c -1.725,1.087 -4.055,1.964 -6.567,1.964 -3.54,0 -4.962,-1.571 -4.962,-3.295 0,-2.45 2.844,-2.933 5.869,-3.84 3.42,-1.03 7.022,-2.298 7.022,-6.322 0,-3.992 -3.662,-6.138 -7.929,-6.138 C 4.6,-2.238 1.725,-1.24 0,0"
             style="fill:#ffffff;fill-opacity:1;fill-rule:nonzero;stroke:none"
             id="path46" /></g></g></g></g></svg>
