<svg width="42" height="42" fill="none" xmlns="http://www.w3.org/2000/svg"><g clip-path="url(#a)"><path d="M32.143.214H9.857A9.643 9.643 0 0 0 .214 9.857v22.286a9.643 9.643 0 0 0 9.643 9.643h22.286a9.643 9.643 0 0 0 9.643-9.643V9.857A9.643 9.643 0 0 0 32.143.214Z" fill="#fff" stroke="#fff"/><path fill-rule="evenodd" clip-rule="evenodd" d="M7.046 29.473h-.978V16.406h.978v13.067Zm-.503-16.27a.746.746 0 1 1 0-1.493.746.746 0 1 1 0 1.493ZM16.544 29.728c-4.781 0-7.802-3.482-7.802-9.016 0-5.507 3.034-9.003 7.802-9.003 4.767 0 7.8 3.496 7.8 9.003 0 5.534-3.02 9.016-7.8 9.016Zm0-17.12c-4.162 0-6.819 3.143-6.819 8.103 0 4.965 2.67 8.119 6.819 8.119 4.162 0 6.819-3.154 6.819-8.119 0-4.962-2.657-8.102-6.82-8.102ZM31.307 29.728c-3.59 0-6.163-2.027-6.309-4.926h.959c.146 2.377 2.378 4.04 5.423 4.04 2.972 0 5.046-1.688 5.046-3.967 0-1.834-1.237-2.888-4.172-3.628l-2.074-.51c-3.238-.826-4.709-2.136-4.709-4.33 0-2.73 2.55-4.696 5.74-4.696 3.3 0 5.763 1.941 5.873 4.513h-.959c-.134-2.098-2.184-3.628-4.938-3.628-2.634 0-4.733 1.579-4.733 3.786 0 1.749 1.286 2.755 4.1 3.458l1.954.497c3.384.837 4.9 2.137 4.9 4.465 0 2.899-2.437 4.926-6.101 4.926Z" fill="#1E263D"/></g><defs><clipPath id="a"><path fill="#fff" d="M0 0h42v42H0z"/></clipPath></defs></svg>