<svg width="82" height="36" fill="none" xmlns="http://www.w3.org/2000/svg"><path d="M5.513 16.032c4.955-.308 6-2.13 6-10.456V0H7.015v5.647c0 6.745-.001 6.75-1.944 6.59-.844-.069-1.37-.25-1.744-.599l-.536-.5-1.206 1.05c-.663.576-1.303 1.136-1.42 1.244-1 .913 2.796 2.758 5.349 2.6ZM25.912 3.798V0H12.864v16.308h13.048v-4.021h-8.549V9.829h7.424V6.255h-7.424V3.798h8.55ZM40.76 3.798V0H26.812v3.798h4.95v12.286h4.049V3.798h4.95Z" fill="#fff"/><path fill-rule="evenodd" clip-rule="evenodd" d="M45.983 35.62c.068-.067-1.352-3.786-3.156-8.265l-3.279-8.143h-4.307l-3.127 7.26c-1.72 3.993-3.196 7.26-3.281 7.26-.18 0-2.246-3.035-2.246-3.3 0-.097.31-.359.689-.581 2.613-1.533 3.187-5.808 1.084-8.073-1.64-1.767-2.505-1.988-8.128-2.078l-4.894-.079v16.138l4.387-.127.128-4.803 2.122.01 3.264 4.904h7.226l1.326-2.904h6.227l1.243 2.904h2.3c1.264 0 2.354-.055 2.422-.123Zm-26.145-8.142V23.68l1.518.001c2.285.002 3.175.315 3.572 1.26.705 1.675-.39 2.535-3.234 2.536h-1.856Zm15.903 1.845c-.187-.237.054-.806.554-2.169.39-1.063.59-1.618.794-1.62.223-.002.451.646.937 2l.701 1.954h-1.57c-.822 0-1.263.03-1.416-.165ZM12.536 27.38c2.634-1.713 1.555-6.407-1.694-7.364-.934-.276-2.249-.357-5.78-.357H.49v16.084l3.88-.007c6.83-.012 8.97-.594 10.038-2.732.92-1.841.207-4.053-1.558-4.837l-.905-.403.59-.384ZM4.54 26.137v-2.68h2.063c2.26 0 2.886.274 2.886 1.263 0 1.077-.701 1.417-2.925 1.417H4.54Zm0 5.808v-2.904l2.08.023c3.133.033 3.578.263 3.223 1.666-.216.857-1.212 1.215-3.38 1.215H4.54Z" fill="#fff"/><path d="m50.997 35.632.118-15.973H46.61v16.1l4.387-.127ZM62.92 28.14l-6.472-8.481h-3.989v16.1l4.387-.127.225-8.383 6.75 8.704 3.711.014V19.659h-4.49l-.122 8.48Z" fill="#fff"/><path d="M80.328 23.43c1.503-1.993.795-2.867-2.871-3.547-9.468-1.754-12.194 7.65-2.879 9.928 2.59.633 3.303 1.025 3.303 1.816 0 1.484-2.972 1.53-5.775.09l-1.675-.861-.783.86c-.43.473-.975 1.103-1.21 1.4l-.427.54 1.166.69c4.556 2.696 10.782 1.999 12.328-1.38 1.525-3.334-.528-6.027-5.382-7.057-2.611-.555-3.642-1.31-2.939-2.15.5-.598 3.022-.32 4.645.51l1.347.69 1.152-1.529Z" fill="#fff"/></svg>