<svg width="37" height="42" fill="none" xmlns="http://www.w3.org/2000/svg"><g clip-path="url(#a)"><path d="M18.038 10.114c.082.041.148.14.246.14.09 0 .228-.033.236-.123.017-.115-.155-.189-.26-.238-.14-.057-.32-.082-.45-.008-.033.016-.066.057-.05.09.025.107.189.09.278.14Zm-1.789.14c.098 0 .164-.098.245-.14.09-.049.254-.032.286-.13.017-.034-.016-.075-.049-.091-.13-.074-.31-.05-.449.008-.106.05-.278.123-.261.238.008.082.147.123.228.115Zm18.064 22.87c-.295-.328-.434-.951-.589-1.616-.147-.664-.318-1.378-.858-1.837a2.215 2.215 0 0 0-.661-.402c.751-2.24.457-4.47-.303-6.489-.93-2.469-2.557-4.627-3.799-6.103-1.397-1.764-2.753-3.437-2.728-5.906C25.415 7.005 25.79.008 19.182 0c-8.365-.016-6.274 8.482-6.364 11.09-.139 1.92-.523 3.43-1.838 5.308-1.544 1.846-3.717 4.823-4.747 7.933-.49 1.468-.719 2.96-.506 4.372-.531.476-.931 1.206-1.356 1.657-.343.352-.842.484-1.39.68-.546.198-1.143.493-1.51 1.19-.172.32-.23.665-.23 1.017 0 .32.05.648.099.968.098.665.204 1.288.065 1.706-.425 1.182-.482 2.002-.18 2.6.31.6.932.862 1.643 1.01 1.413.295 3.333.221 4.844 1.025 1.618.853 3.26 1.157 4.567.853.948-.213 1.724-.787 2.116-1.657 1.021-.008 2.149-.443 3.946-.541 1.217-.099 2.745.435 4.501.336.05.189.115.378.205.55v.008c.678 1.37 1.944 1.994 3.292 1.887 1.356-.107 2.786-.902 3.946-2.289 1.11-1.345 2.94-1.903 4.158-2.641.605-.37 1.095-.829 1.136-1.501.032-.673-.36-1.42-1.267-2.437ZM18.274 7.161c.801-1.82 2.795-1.788 3.595-.032.531 1.164.294 2.534-.351 3.314-.13-.066-.482-.214-1.03-.402.09-.099.254-.222.319-.378.392-.968-.016-2.215-.743-2.24-.597-.04-1.136.887-.964 1.888-.335-.164-.768-.288-1.063-.361a3.28 3.28 0 0 1 .237-1.789Zm-3.325-.943c.825 0 1.7 1.165 1.56 2.748-.285.082-.58.205-.833.377.098-.73-.27-1.648-.784-1.607-.686.057-.8 1.739-.147 2.305.082.065.155-.017-.482.45-1.274-1.197-.858-4.273.686-4.273Zm-1.11 4.98c.506-.378 1.11-.821 1.151-.862.384-.361 1.103-1.165 2.28-1.165.58 0 1.274.189 2.116.73.514.337.923.361 1.846.763.686.287 1.12.796.858 1.493-.213.582-.899 1.181-1.855 1.485-.907.295-1.617 1.312-3.12 1.222a2.266 2.266 0 0 1-.785-.172c-.653-.287-.997-.853-1.634-1.23-.702-.394-1.078-.854-1.2-1.256-.115-.402 0-.738.342-1.009Zm.269 27.398c-.22 2.879-3.586 2.822-6.152 1.476-2.443-1.296-5.604-.533-6.25-1.796-.196-.386-.196-1.042.213-2.166v-.016c.196-.624.049-1.313-.05-1.96-.097-.64-.146-1.231.074-1.641.286-.55.695-.747 1.21-.927.84-.304.963-.28 1.6-.813.45-.467.777-1.058 1.169-1.476.417-.451.817-.665 1.446-.566.662.098 1.234.558 1.79 1.313l1.6 2.92c.777 1.632 3.521 3.97 3.35 5.652Zm-.114-2.125c-.335-.541-.785-1.115-1.177-1.608.58 0 1.16-.18 1.364-.73.188-.508 0-1.222-.604-2.042-1.103-1.493-3.13-2.666-3.13-2.666-1.102-.69-1.723-1.534-2.009-2.453-.286-.919-.245-1.911-.024-2.888.425-1.878 1.52-3.707 2.222-4.856.188-.14.065.263-.71 1.706-.695 1.321-1.994 4.373-.213 6.76.049-1.698.449-3.43 1.127-5.045.98-2.248 3.047-6.144 3.21-9.245.09.066.377.262.507.336.376.222.662.55 1.03.845 1.013.82 2.328.755 3.464.099.506-.287.915-.616 1.299-.739.808-.254 1.454-.705 1.821-1.23.63 2.494 2.1 6.095 3.04 7.85.498.935 1.494 2.912 1.928 5.3.27-.009.571.032.89.114 1.127-2.928-.956-6.086-1.904-6.964-.384-.378-.4-.541-.212-.533 1.03.918 2.386 2.764 2.876 4.84.229.951.27 1.944.033 2.928 1.34.558 2.932 1.468 2.508 2.855-.18-.009-.262 0-.344 0 .262-.829-.318-1.444-1.862-2.141-1.602-.706-2.941-.706-3.13 1.025-.988.345-1.494 1.206-1.748 2.24-.228.918-.294 2.026-.359 3.273-.04.631-.294 1.476-.556 2.378-2.622 1.879-6.266 2.7-9.337.591Zm21.028-.943c-.073 1.378-3.366 1.632-5.163 3.814-1.078 1.288-2.402 2.002-3.562 2.092-1.16.09-2.165-.394-2.753-1.583-.384-.91-.196-1.895.09-2.978.302-1.165.751-2.362.808-3.33.066-1.247.14-2.338.344-3.175.212-.845.539-1.41 1.119-1.73.024-.017.057-.026.082-.042.065 1.083.596 2.182 1.535 2.42 1.03.27 2.509-.615 3.138-1.337.735-.025 1.282-.074 1.846.418.809.697.58 2.486 1.397 3.413.866.951 1.144 1.6 1.12 2.018Zm-20.865-23.33c.163.156.384.37.654.582.539.427 1.29.87 2.23.87.947 0 1.838-.484 2.598-.886.4-.213.89-.574 1.209-.853.319-.279.482-.517.253-.541-.229-.025-.212.213-.49.418-.36.262-.792.607-1.136.804-.604.344-1.593.836-2.442.836-.85 0-1.528-.393-2.035-.795-.253-.205-.465-.41-.629-.566-.122-.115-.155-.377-.35-.402-.115-.008-.148.303.138.533Z" fill="#F1F1F1"/></g><defs><clipPath id="a"><path fill="#fff" d="M0 0h36.6v42H0z"/></clipPath></defs></svg>