<svg width="26" height="30" fill="none" xmlns="http://www.w3.org/2000/svg"><path d="M12.45 0C9.407 0 7.863 2.188 7.863 6.504v3.252a1.8 1.8 0 0 1-.182.76 7.4 7.4 0 0 1-.386.564c-.911 1.265-2.926 4.761-3.3 8.562a2.39 2.39 0 0 1 .461-.049c.402 0 1.462 0 3.151 2.767.323.46.492.742.724 1.128.157.265.349.587.656 1.073l.015.022.018.028c.177.313.36.562.54.798.102.137.207.28.31.427.402-.16.811-.399 1.054-.744.32-.529.285-1.156-.094-1.72-.156-.237-.446-.404-1.137-.798-.414-.234-.929-.526-1.164-.727-.55-.467-1.321-1.486-1.321-2.294 0-1.728 1.164-4.363 2.099-5.925.535-.892.942-1.58 1.103-2.167a1.3 1.3 0 0 0 .338.173l.023.007.025.008c.456.12.914.099 1.211.099.617 0 1.062-.295 1.477-.541.407-.247.809-.475.868-.496.297.557.68 1.072 1.08 1.609 1.096 1.463 2.411 3.925 2.8 7.58.51-.266.802-.347 1.426-.347l.041.002c.056-.002.11-.007.166-.007.164 0 .33.01.494.025.387.023.904.155 1.209.26.511.15.934.416 1.23.756.267.003.523.064.758.178 0-.424.034-1.046.034-1.214 0-2.147-1.418-5.11-2.486-6.629-.22-.315-.432-.61-.637-.891-.945-1.299-1.692-2.325-2.12-4.093-.281-1.149-.32-1.505-.358-1.848-.036-.345-.077-.706-.31-1.676C17.255 2.449 16.73 0 12.45 0Zm-1.966 3.902c.725 0 1.31 1.309 1.31 2.389 0 .066-.007.17-.012.264-.049-.003-.097-.01-.149-.01-.186 0-.36.028-.527.07-.08-.413-.32-.72-.622-.72-.36 0-.655.436-.655.975 0 .132.018.257.051.37a4.05 4.05 0 0 0-.392.324l-.061.053a2.383 2.383 0 0 1-.125-.32c-.075-.455-.128-1.006-.128-1.006 0-1.08.586-2.389 1.31-2.389Zm3.277 0c.724 0 1.31 1.309 1.31 2.389 0 .401-.087.874-.228 1.247a3.613 3.613 0 0 0-.53-.178c.06-.145.103-.307.103-.49 0-.539-.295-.976-.655-.976-.361 0-.656.437-.656.976v.008a5.154 5.154 0 0 0-.635-.214 5.75 5.75 0 0 1-.02-.373c0-1.08.586-2.389 1.31-2.389Zm-2.128 3.944c.267 0 .653.104 1.006.246.354.142.653.3.904.404l.051.023.054.01c.333.079.632.163.755.226-.033.28-.067.432-.082.455-.018.028-.11.114-.445.292-.415.147-.73.386-1.068.59-.37.22-.747.355-.8.355-.287 0-.684-.02-.843-.053.061.018-.046-.036-.182-.16a13.03 13.03 0 0 1-.512-.521l-.048-.048-.052-.036a2.671 2.671 0 0 1-.453-.373c-.081-.097-.09-.125-.09-.188 0-.097-.017-.039.042-.105.059-.068.238-.208.481-.421l.023-.018.02-.023c-.035.038.203-.193.461-.36.259-.168.579-.295.778-.295Zm8.232 13.005c-.611 0-1.036.18-1.151.325.266.305.43.6.599 1.134.181.396.637.495 1 .495 1.111 0 1.326-.663 1.677-1.037 0 0-.092-.101-.092-.2-.092-.199-.364-.397-.727-.496-.274-.099-.73-.198-.911-.198a3.054 3.054 0 0 0-.395-.023Zm-15.409.043c-.456 0-.68.224-.985.526-.305.3-.628.767-1.16 1.143-.468.605-1.869.023-2.27.933-.223.498.542 1.153.542 2.279 0 .452-.381.752-.455 1.054-.077.374-.154.6 0 .9.302.45.683.602 3.266 1.125 1.367.303 2.66 1.055 3.494 1.128.834.074 2.278 0 2.278-2.027.077-1.202-.607-1.502-1.29-2.703-.76-1.205-.835-1.428-1.367-2.18-.456-.752-1.444-2.178-2.053-2.178Zm13.39 1.299c-.154.304-.154.536-.154 1.303 0 .615 0 1.306-.077 1.844-.156 1.306-.578 1.893-.578 2.66 0 .846.233 1.385.543 1.616.23.232.619.384 1.471.384.85 0 1.393-.307 1.936-.843.386-.387.696-.54 1.781-1.309.85-.538 2.168-1.23 2.398-1.458.157-.155.39-.234.39-.696 0-.384-.31-.537-.543-.613-.31-.155-.85-.386-1.316-1.077-.202-.333-.171-1.189-.414-1.71l-.336.358c-.038.041-.071.094-.11.143-.317.426-.978 1.31-2.524 1.31-1.013 0-1.832-.47-2.193-1.26l-.034-.07-.025-.08a2.054 2.054 0 0 0-.215-.502Zm-1.79 4.156c-.624.534-1.579 1.05-2.95 1.05-1.396 0-2.338-.511-2.937-1.035.208.432.346.945.307 1.631 0 .247-.023.48-.058.704h5.362a5.061 5.061 0 0 1-.054-.699c0-.574.144-1.041.284-1.493l.047-.158Z" fill="#1B2A4E"/></svg>