<svg width="42" height="42" fill="none" xmlns="http://www.w3.org/2000/svg"><path d="M23.091 14.018v-.342l-1.063.073c-.301.019-.527.083-.679.191a.527.527 0 0 0-.228.453c0 .188.075.338.226.449.15.112.352.167.604.167.161 0 .312-.025.451-.074.139-.049.261-.118.363-.206a.924.924 0 0 0 .326-.711ZM21 .25C9.421.25.25 9.421.25 21 .25 32.58 9.421 41.75 21 41.75S41.75 32.58 41.75 21C41.75 9.421 32.58.25 21 .25Zm4.028 12.299c.098-.275.236-.511.415-.707.179-.196.394-.347.646-.453.252-.106.533-.159.842-.159.279 0 .531.042.755.125.225.083.417.195.578.336.161.141.289.305.383.493.094.188.15.387.169.596h-.833a1.072 1.072 0 0 0-.113-.322.88.88 0 0 0-.213-.258 1 1 0 0 0-.312-.171 1.217 1.217 0 0 0-.405-.062c-.177 0-.338.036-.481.107a1.062 1.062 0 0 0-.369.302 1.43 1.43 0 0 0-.237.475 2.126 2.126 0 0 0-.085.622c0 .236.028.448.085.634.056.187.136.344.24.473.103.129.228.228.373.296.145.068.305.103.479.103.285 0 .517-.067.697-.201.18-.134.296-.33.35-.588h.834a1.659 1.659 0 0 1-.189.624 1.607 1.607 0 0 1-.396.481 1.767 1.767 0 0 1-.574.308c-.22.072-.462.109-.725.109-.312 0-.593-.052-.846-.155a1.817 1.817 0 0 1-.649-.445 1.993 1.993 0 0 1-.417-.705 2.788 2.788 0 0 1-.147-.935 2.697 2.697 0 0 1 .145-.923Zm-11.853-1.262h.834v.741h.016a1.233 1.233 0 0 1 .484-.578 1.3 1.3 0 0 1 .354-.157 1.51 1.51 0 0 1 .407-.054c.306 0 .565.073.775.219.211.146.361.356.449.63h.021c.056-.132.13-.25.221-.354a1.416 1.416 0 0 1 .703-.437 1.66 1.66 0 0 1 .445-.058c.215 0 .41.034.586.103.176.069.326.165.451.29.125.125.221.277.288.455.067.178.101.376.101.594v2.981h-.87V12.89c0-.287-.074-.51-.222-.667-.147-.157-.358-.236-.632-.236a.944.944 0 0 0-.369.071.842.842 0 0 0-.288.198.889.889 0 0 0-.189.304 1.057 1.057 0 0 0-.069.387v2.715h-.858v-2.844c0-.126-.02-.24-.059-.342a.726.726 0 0 0-.431-.429.986.986 0 0 0-.349-.059.924.924 0 0 0-.373.075.88.88 0 0 0-.485.521c-.044.12-.116.252-.116.394v2.683h-.825v-4.374Zm1.893 20.939c-3.825 0-6.224-2.658-6.224-6.9 0-4.242 2.399-6.909 6.224-6.909s6.215 2.667 6.215 6.909c0 4.241-2.39 6.9-6.215 6.9Zm7.082-16.575a1.741 1.741 0 0 1-.433.054c-.218 0-.417-.031-.598-.093a1.379 1.379 0 0 1-.467-.262 1.175 1.175 0 0 1-.304-.409 1.271 1.271 0 0 1-.109-.534c0-.384.143-.684.429-.9.286-.216.7-.342 1.243-.377l1.18-.068v-.338c0-.252-.08-.445-.24-.576-.16-.131-.386-.197-.679-.197a1.21 1.21 0 0 0-.331.044.91.91 0 0 0-.27.127.726.726 0 0 0-.298.454h-.818c.005-.193.053-.372.143-.536a1.38 1.38 0 0 1 .367-.427c.155-.121.336-.215.546-.282.21-.067.438-.101.685-.101.266 0 .507.033.723.101.216.068.401.163.554.288.153.125.271.275.354.451.083.176.125.373.125.59v3.001h-.833v-.729h-.021c-.062.118-.14.225-.235.32a1.51 1.51 0 0 1-.713.399Zm5.503 16.575c-2.917 0-4.9-1.528-5.038-3.927h1.899c.148 1.371 1.473 2.279 3.288 2.279 1.741 0 2.992-.908 2.992-2.149 0-1.074-.76-1.723-2.519-2.167l-1.714-.426c-2.464-.611-3.584-1.732-3.584-3.575 0-2.269 1.982-3.844 4.807-3.844 2.76 0 4.686 1.584 4.76 3.862h-1.88c-.13-1.371-1.25-2.214-2.918-2.214-1.658 0-2.806.852-2.806 2.084 0 .972.722 1.547 2.482 1.991l1.445.361c2.751.667 3.881 1.751 3.881 3.696-.001 2.482-1.964 4.029-5.095 4.029ZM15.068 20.12c-2.621 0-4.26 2.01-4.26 5.205 0 3.186 1.639 5.196 4.26 5.196 2.612 0 4.26-2.01 4.26-5.196.001-3.195-1.648-5.205-4.26-5.205Z" fill="#fff"/></svg>