<svg width="34" height="42" fill="none" xmlns="http://www.w3.org/2000/svg"><g clip-path="url(#a)"><path d="m30.516 19.072-.304-.533c.008-3.806-1.755-5.357-3.814-6.538.623-.164 1.263-.295 1.443-1.083 1.075-.27 1.296-.77 1.403-1.296.279-.188 1.214-.713 1.116-1.616.525-.36.82-.828.664-1.484.566-.616.714-1.124.476-1.592.68-.845.377-1.28.09-1.714.509-.92.058-1.903-1.361-1.74-.566-.828-1.797-.64-1.986-.64-.213-.262-.492-.491-1.353-.385-.558-.5-1.181-.41-1.83-.172-.762-.599-1.27-.115-1.853.066-.927-.296-1.14.106-1.592.278-1.009-.213-1.32.247-1.804.73l-.567-.008c-1.525.886-2.28 2.691-2.55 3.618-.271-.927-1.026-2.732-2.552-3.618l-.566.009C13.092.87 12.78.41 11.771.624c-.459-.165-.664-.575-1.59-.28C9.802.23 9.45-.015 9.04-.007c-.213.008-.451.082-.714.287C7.678.033 7.055-.05 6.496.45c-.86-.106-1.148.115-1.353.386-.188 0-1.419-.189-1.985.64-1.419-.164-1.862.82-1.353 1.739-.287.443-.59.877.09 1.714-.238.468-.09.976.476 1.592-.148.656.147 1.123.664 1.484-.098.903.837 1.428 1.116 1.616.106.525.328 1.018 1.403 1.296.18.78.82.92 1.443 1.083-2.059 1.181-3.822 2.732-3.814 6.538l-.304.533c-2.362 1.411-4.487 5.964-1.165 9.655.214 1.157.583 1.985.903 2.904.484 3.708 3.65 5.439 4.479 5.644 1.222.919 2.526 1.788 4.282 2.395 1.665 1.69 3.47 2.33 5.274 2.33h.082c1.813 0 3.61-.64 5.267-2.33 1.764-.607 3.06-1.476 4.282-2.395.836-.205 3.995-1.936 4.479-5.644.32-.919.689-1.747.902-2.904 3.33-3.7 1.206-8.244-1.148-9.655Zm-1.821-.656c-.123 1.534-8.113-5.34-6.735-5.57 3.749-.615 6.858 1.575 6.735 5.57Zm-3.528 7.637c-2.01 1.296-4.905.46-6.464-1.87-1.558-2.33-1.197-5.267.812-6.563 2.01-1.296 4.906-.459 6.464 1.87 1.559 2.33 1.198 5.267-.812 6.563Zm-5.57-23.65c.066.345.148.558.238.624.443-.476.804-.96 1.378-1.42 0 .272-.14.559.205.772.304-.41.722-.78 1.272-1.091-.263.46-.05.599.098.787.419-.36.82-.721 1.592-1.009-.214.255-.509.509-.197.804.435-.27.87-.541 1.895-.73-.23.255-.714.517-.419.771a7.822 7.822 0 0 1 1.813-.443c-.32.263-.582.517-.32.722.583-.18 1.387-.418 2.166-.213l-.492.5c-.058.066 1.156.05 1.96.066-.295.41-.59.796-.763 1.493.082.082.476.033.854 0-.386.812-1.05 1.009-1.206 1.362.238.18.558.13.918.008-.278.566-.853.96-1.312 1.419.115.082.32.131.796.074a7.37 7.37 0 0 1-1.543 1.23c.107.123.476.123.82.132-.549.533-1.254.812-1.919 1.164.328.222.566.173.82.173-.467.385-1.263.582-2.001.82.14.222.279.279.582.336-.779.435-1.903.238-2.214.46.073.221.295.36.55.476-1.264.073-4.701-.05-5.366-2.65 1.288-1.42 3.643-3.076 7.687-5.135-3.15 1.05-5.989 2.46-8.367 4.388-2.814-1.304-.887-4.585.475-5.89Zm-2.822 9.401c1.986-.024 4.438 1.46 4.43 2.847-.008 1.23-1.723 2.223-4.413 2.207-2.633-.033-4.405-1.247-4.397-2.445 0-.976 2.15-2.666 4.38-2.609Zm-10.09-1.05c.304-.057.444-.123.583-.336-.738-.23-1.534-.435-2.002-.82.255 0 .493.057.82-.173-.664-.352-1.37-.631-1.919-1.164.345-.009.714 0 .82-.132A7.369 7.369 0 0 1 3.445 6.9c.476.057.681.008.796-.074-.46-.46-1.042-.853-1.312-1.42.352.124.68.165.918-.007-.156-.345-.82-.55-1.206-1.362.378.033.771.082.854 0-.173-.697-.476-1.091-.763-1.493.804-.008 2.018 0 1.96-.066l-.492-.5c.78-.205 1.583.033 2.166.213.262-.205-.009-.46-.32-.722.664.09 1.263.238 1.813.443.287-.254-.19-.516-.419-.77 1.026.188 1.46.459 1.895.73.312-.296.017-.55-.197-.805.771.28 1.173.648 1.592 1.01.14-.19.36-.329.098-.788.55.312.968.68 1.272 1.09.336-.212.205-.508.205-.77.574.46.935.943 1.378 1.419.09-.066.164-.279.238-.623 1.361 1.304 3.29 4.585.492 5.89-2.379-1.928-5.217-3.34-8.367-4.39 4.044 2.052 6.398 3.717 7.686 5.136-.656 2.609-4.102 2.723-5.365 2.65.254-.115.476-.263.55-.476-.328-.23-1.444-.033-2.231-.46Zm4.93 1.977c1.379.23-6.611 7.096-6.734 5.57-.123-3.995 2.994-6.193 6.735-5.57ZM3.135 28.055C1.189 26.512.566 22.009 4.167 19.99c2.174-.574.738 8.843-1.033 8.064Zm7.464 8.055c-1.09.648-3.757.386-5.643-2.288-1.272-2.248-1.108-4.529-.214-5.201 1.338-.804 3.405.279 4.996 2.1 1.386 1.64 2.018 4.536.861 5.39Zm-2.165-9.819c-2.01-1.296-2.37-4.233-.812-6.562 1.558-2.33 4.454-3.167 6.464-1.87 2.01 1.295 2.37 4.232.812 6.562-1.567 2.33-4.463 3.166-6.464 1.87Zm8.383 14.396c-2.411.099-4.774-1.944-4.741-2.65-.033-1.04 2.937-1.853 4.864-1.804 1.945-.082 4.561.616 4.57 1.55.04.903-2.363 2.946-4.693 2.904Zm4.832-10.245c.016 2.436-2.15 4.413-4.823 4.43-2.675.016-4.857-1.953-4.873-4.38v-.05c-.017-2.436 2.15-4.413 4.823-4.43 2.675-.016 4.857 1.953 4.873 4.38v.05Zm6.743 3.503c-2.075 2.838-4.89 2.944-5.93 2.157-1.092-1.017-.263-4.175 1.238-5.906 1.714-1.912 3.552-3.159 4.831-2.182.862.845 1.37 4.027-.139 5.93Zm1.879-6.005c-1.764.771-3.2-8.638-1.034-8.064 3.601 2.026 2.978 6.53 1.034 8.064Z" fill="#fff"/></g><defs><clipPath id="a"><path fill="#fff" d="M0 0h33.387v42H0z"/></clipPath></defs></svg>