<svg width="98" height="92" fill="none" xmlns="http://www.w3.org/2000/svg"><path d="m66.927 10.17.373-1.125c.759-2.292-.423-4.807-2.714-5.652-21.284-7.86-45.687.809-56.663 21.118C.708 37.865.952 53.175 7.222 65.801l12.314-6.145c-4.315-8.807-4.455-19.456.566-28.75C27.837 16.593 45.28 10.11 61.697 13.199c2.275.426 4.513-.86 5.23-3.029Z" fill="url(#a)"/><path d="m30.118 81.488-.372 1.125c-.76 2.292.423 4.806 2.714 5.652 21.282 7.86 45.687-.81 56.66-21.118 7.215-13.354 6.971-28.664.702-41.29l-12.315 6.144c4.315 8.808 4.456 19.457-.565 28.75-7.735 14.315-25.178 20.796-41.596 17.709-2.272-.427-4.51.859-5.228 3.028Z" fill="url(#b)"/><path d="M16.323 45.829a31.38 31.38 0 0 0 2.97 13.287l5.703-2.856c1.608-.805 3.4.707 2.84 2.396l-5.61 16.963c-.491 1.487-2.113 2.299-3.622 1.814l-17.208-5.53c-1.714-.55-1.895-2.868-.29-3.673l5.895-2.954c-8.115-16.838-5.14-37.575 8.995-51.51C24.978 4.914 36.75.487 48.523.487c0 0-32.2 13.603-32.2 45.343ZM95.65 19.754l-17.209-5.53c-1.509-.485-3.13.33-3.622 1.814l-5.61 16.963c-.559 1.69 1.233 3.201 2.84 2.397l5.704-2.857a31.38 31.38 0 0 1 2.97 13.288c0 31.74-32.2 45.342-32.2 45.342 11.773 0 23.545-4.425 32.526-13.278 14.136-13.934 17.11-34.672 8.996-51.51l5.895-2.954c1.607-.805 1.423-3.124-.29-3.675Z" fill="url(#c)"/><defs><radialGradient id="a" cx="0" cy="0" r="1" gradientUnits="userSpaceOnUse" gradientTransform="matrix(39.1736 0 0 38.614 59.3 39.193)"><stop offset=".683" stop-color="#C24717"/><stop offset=".756" stop-color="#BB4417"/><stop offset=".862" stop-color="#A83B18"/><stop offset=".987" stop-color="#892C1A"/><stop offset="1" stop-color="#852A1A"/></radialGradient><radialGradient id="b" cx="0" cy="0" r="1" gradientUnits="userSpaceOnUse" gradientTransform="matrix(-39.1736 0 0 -38.614 37.745 52.465)"><stop offset=".683" stop-color="#C24717"/><stop offset=".756" stop-color="#BB4417"/><stop offset=".862" stop-color="#A83B18"/><stop offset=".987" stop-color="#892C1A"/><stop offset="1" stop-color="#852A1A"/></radialGradient><linearGradient id="c" x1="22.85" y1="8.824" x2="72.741" y2="82.833" gradientUnits="userSpaceOnUse"><stop stop-color="#FED100"/><stop offset="1" stop-color="#E36001"/></linearGradient></defs></svg>