<?xml version="1.0" encoding="UTF-8" standalone="no"?>
<svg
   width="446pt"
   height="208pt"
   viewBox="0 0 446 208"
   version="1.1"
   id="svg58"
   sodipodi:docname="sssv.svg"
   inkscape:version="1.1.2 (0a00cf5339, 2022-02-04)"
   xmlns:inkscape="http://www.inkscape.org/namespaces/inkscape"
   xmlns:sodipodi="http://sodipodi.sourceforge.net/DTD/sodipodi-0.dtd"
   xmlns="http://www.w3.org/2000/svg"
   xmlns:svg="http://www.w3.org/2000/svg">
  <defs
     id="defs62" />
  <sodipodi:namedview
     id="namedview60"
     pagecolor="#ffffff"
     bordercolor="#666666"
     borderopacity="1.0"
     inkscape:pageshadow="2"
     inkscape:pageopacity="0.0"
     inkscape:pagecheckerboard="0"
     inkscape:document-units="pt"
     showgrid="false"
     inkscape:zoom="1.2090807"
     inkscape:cx="353.98795"
     inkscape:cy="284.51368"
     inkscape:window-width="1920"
     inkscape:window-height="1004"
     inkscape:window-x="0"
     inkscape:window-y="39"
     inkscape:window-maximized="1"
     inkscape:current-layer="svg58" />
  <path
     fill="#337ab7"
     d=" M 440.63 0.00 L 442.26 0.00 C 440.96 13.10 440.95 26.72 436.18 39.16 C 432.79 48.20 423.24 52.05 414.91 55.36 C 420.65 46.28 427.41 37.76 431.83 27.90 C 436.17 19.10 437.77 9.32 440.63 0.00 Z"
     id="path4"
     style="fill:#ffffff" />
  <path
     fill="#337ab7"
     d=" M 0.00 7.18 C 3.44 13.55 6.55 20.08 9.31 26.78 C 13.36 37.02 20.24 45.67 26.11 54.88 C 20.34 53.40 14.63 50.85 10.37 46.61 C 2.62 39.10 2.30 27.35 0.00 17.54 L 0.00 7.18 Z"
     id="path6"
     style="fill:#ffffff" />
  <path
     fill="#337ab7"
     d=" M 8.51 20.22 C 15.70 25.10 22.39 30.73 30.05 34.90 C 53.37 47.35 79.58 54.49 106.02 55.20 C 111.96 54.07 115.77 59.06 119.96 62.06 C 132.71 72.82 146.75 81.96 161.65 89.43 C 151.22 98.33 135.93 93.96 125.34 87.69 C 131.12 87.34 136.91 87.10 142.68 86.59 C 137.81 82.84 132.24 80.21 127.13 76.83 C 120.72 72.73 114.83 67.89 108.40 63.83 C 95.90 62.67 83.04 63.05 70.98 59.08 C 47.01 52.72 22.85 41.31 8.51 20.22 Z"
     id="path8"
     style="fill:#ffffff" />
  <path
     fill="#337ab7"
     d=" M 329.30 55.38 C 362.35 55.92 395.15 45.79 422.94 28.10 C 423.13 28.43 423.49 29.11 423.67 29.44 C 420.47 32.35 417.96 35.89 414.86 38.88 C 405.83 46.55 394.69 50.96 383.54 54.54 C 371.33 58.33 359.05 63.19 346.02 62.79 C 340.63 63.48 334.15 61.45 329.90 65.90 C 320.16 73.53 309.68 80.14 298.73 85.89 C 303.32 86.95 307.95 88.09 312.27 90.03 C 306.43 91.23 300.99 94.09 294.97 94.45 C 290.06 94.49 285.38 92.96 280.89 91.14 C 280.97 90.43 281.12 89.00 281.20 88.28 C 289.30 84.21 297.37 80.02 305.03 75.17 C 313.25 68.74 321.36 62.16 329.30 55.38 Z"
     id="path10"
     style="fill:#ffffff" />
  <path
     fill="#337ab7"
     d=" M 419.19 58.17 C 428.85 51.02 438.88 44.09 446.00 34.15 L 446.00 35.27 C 436.24 53.03 423.29 70.53 403.96 78.48 C 409.65 72.16 414.34 65.09 419.19 58.17 Z"
     id="path12"
     style="fill:#ffffff" />
  <path
     fill="#337ab7"
     d=" M 401.25 51.50 C 408.44 47.87 414.93 42.98 422.22 39.51 C 417.42 48.34 410.77 55.94 404.62 63.81 C 408.13 62.45 411.62 61.03 415.15 59.68 C 413.00 62.99 410.75 66.24 408.38 69.39 C 403.56 75.30 396.64 78.87 391.37 84.32 C 393.16 84.68 396.72 85.39 398.50 85.75 C 388.92 90.80 377.58 89.93 367.38 87.62 C 355.42 85.60 344.64 79.60 334.66 72.97 C 332.45 85.79 326.64 98.05 316.87 106.87 C 308.55 117.06 294.27 120.06 287.35 131.59 C 287.61 125.82 287.48 119.98 288.32 114.26 C 294.14 110.36 301.65 109.60 307.40 105.31 C 301.97 105.41 296.51 106.34 291.10 105.57 C 287.51 105.26 287.15 101.02 285.80 98.43 C 299.87 100.67 314.55 95.67 323.58 84.48 C 318.18 85.09 312.73 85.78 307.33 84.73 C 313.70 79.91 320.77 76.05 326.82 70.79 C 330.12 68.47 333.14 64.41 337.85 65.59 C 347.21 66.06 356.51 65.35 365.75 63.81 C 361.88 67.06 357.63 69.80 353.55 72.74 C 363.59 74.39 375.93 76.20 384.20 68.79 C 380.23 67.26 376.12 66.14 372.06 64.87 C 372.07 64.23 372.09 62.93 372.10 62.28 C 382.08 59.46 391.72 55.58 401.25 51.50 Z"
     id="path14"
     style="fill:#ffffff" />
  <path
     fill="#337ab7"
     d=" M 1.91 43.00 C 7.31 46.94 12.62 51.03 18.19 54.74 C 25.37 58.48 28.16 66.55 31.29 73.50 C 24.42 72.30 19.34 67.11 14.50 62.49 C 9.42 56.71 3.92 50.61 1.91 43.00 Z"
     id="path16"
     style="fill:#ffffff" />
  <path
     fill="#337ab7"
     d=" M 24.31 44.86 C 30.96 46.57 37.06 49.73 43.14 52.82 C 49.83 56.28 57.27 58.19 63.53 62.50 C 61.46 63.88 59.30 65.14 57.13 66.36 C 57.09 67.54 57.05 68.72 57.02 69.90 C 64.18 72.04 71.36 75.86 79.03 74.09 C 81.92 73.82 84.75 73.16 87.58 72.56 C 84.15 70.23 80.65 68.00 77.14 65.79 C 77.09 65.14 76.99 63.83 76.94 63.18 C 86.73 65.65 96.92 66.20 106.96 65.29 C 115.61 72.35 124.92 78.49 134.45 84.27 C 129.22 85.82 123.76 85.33 118.42 84.73 C 123.09 89.82 128.68 94.24 135.14 96.79 C 141.80 98.80 148.84 98.59 155.72 98.33 C 154.64 100.86 154.03 103.95 151.65 105.63 C 145.99 107.39 140.04 105.31 134.25 105.44 C 139.82 109.67 147.03 110.56 152.97 114.01 C 153.42 123.36 154.84 132.71 158.80 141.27 C 153.63 135.84 151.28 128.29 146.23 122.90 C 133.77 116.81 122.03 108.24 115.11 95.91 C 110.28 89.08 108.23 80.95 106.13 73.00 C 90.88 84.95 71.19 90.06 52.03 89.88 C 47.03 89.49 42.17 88.06 37.52 86.23 C 41.51 85.53 45.50 84.87 49.50 84.23 C 40.37 77.35 31.40 69.84 26.47 59.19 C 30.15 60.75 33.79 62.39 37.48 63.92 C 33.43 57.31 27.07 52.24 24.31 44.86 Z"
     id="path18"
     style="fill:#ffffff" />
  <path
     fill="#337ab7"
     d=" M 160.58 76.99 C 164.67 80.71 168.47 84.78 173.08 87.90 C 183.38 94.10 197.16 92.35 206.35 100.65 C 210.91 104.30 210.52 110.45 211.01 115.70 C 207.96 112.88 205.17 109.78 202.31 106.78 C 200.28 108.51 198.31 110.31 196.43 112.21 C 198.92 112.18 201.41 112.02 203.90 111.86 C 201.80 115.78 196.68 117.56 192.89 114.91 C 192.23 110.12 196.25 106.98 199.95 104.93 C 191.85 98.28 180.92 97.38 172.35 91.59 C 167.34 87.75 163.13 82.79 160.58 76.99 Z"
     id="path20"
     style="fill:#ffffff" />
  <path
     fill="#337ab7"
     d=" M 263.58 90.51 C 270.37 87.22 275.54 81.52 281.30 76.78 C 277.02 85.26 270.28 92.92 260.90 95.70 C 254.12 97.53 247.77 100.51 241.72 104.04 C 245.27 106.99 248.06 110.70 249.58 115.08 C 246.06 115.29 242.54 115.41 239.02 115.31 C 238.98 113.94 238.95 112.58 238.91 111.21 C 240.63 111.76 242.35 112.29 244.08 112.80 C 242.97 110.91 242.61 107.60 240.13 107.16 C 236.79 109.73 233.96 112.88 230.76 115.62 C 229.65 109.40 231.65 102.87 236.99 99.02 C 244.68 93.32 254.97 94.03 263.58 90.51 Z"
     id="path22"
     style="fill:#ffffff" />
  <path
     fill="#337ab7"
     d=" M 92.04 86.99 C 96.34 84.36 100.19 81.04 104.07 77.83 C 106.78 87.26 111.09 95.98 115.64 104.62 C 109.51 108.96 103.48 113.47 97.10 117.45 C 98.67 114.28 99.82 110.84 101.88 107.95 C 105.34 105.52 109.43 104.14 112.74 101.49 C 97.82 107.19 82.06 109.99 66.16 111.04 C 65.87 110.59 65.29 109.70 65.00 109.25 C 73.64 106.56 81.87 102.68 89.52 97.86 C 83.76 97.45 77.91 97.42 72.28 95.97 C 78.76 92.75 85.62 90.33 92.04 86.99 Z"
     id="path24"
     style="fill:#ffffff" />
  <path
     fill="#337ab7"
     d=" M 325.95 103.21 C 331.42 95.51 334.94 86.77 337.31 77.67 C 346.39 85.94 357.50 91.33 368.73 96.01 C 363.22 97.52 357.45 97.79 351.76 97.77 C 359.59 102.61 368.04 106.26 376.45 109.95 C 359.93 112.68 343.95 105.42 328.32 101.30 C 331.68 104.18 336.01 105.47 339.63 107.92 C 341.38 111.17 342.78 114.63 344.15 118.07 C 337.76 113.54 331.47 108.78 325.95 103.21 Z"
     id="path26"
     style="fill:#ffffff" />
  <path
     fill="#337ab7"
     d=" M 202.42 86.59 C 218.46 85.93 235.56 82.79 250.56 90.30 C 244.24 92.07 237.33 93.65 232.63 98.63 C 228.99 101.91 229.32 107.09 228.30 111.50 C 225.30 109.22 222.72 106.43 219.59 104.31 C 217.68 106.94 215.82 109.59 213.91 112.22 C 212.83 106.47 211.29 100.34 206.71 96.30 C 202.09 92.97 196.00 92.71 190.76 90.89 C 194.52 89.18 198.22 86.94 202.42 86.59 Z"
     id="path28"
     style="fill:#ffffff" />
  <path
     fill="#337ab7"
     d=" M 163.04 90.31 C 167.27 92.82 171.01 96.04 174.75 99.20 C 171.49 106.40 167.77 113.53 166.29 121.37 C 162.63 131.57 170.42 140.30 174.33 149.07 C 167.01 143.09 160.86 135.49 157.26 126.71 C 153.66 114.30 158.23 101.69 163.04 90.31 Z"
     id="path30"
     style="fill:#ffffff" />
  <path
     fill="#337ab7"
     d=" M 267.59 98.37 C 270.79 95.14 274.53 92.47 278.57 90.38 C 282.84 100.19 285.71 110.92 285.53 121.66 C 282.77 132.23 276.41 142.46 267.21 148.59 C 270.28 142.72 275.44 137.47 275.47 130.40 C 276.44 121.92 273.42 113.70 269.70 106.24 C 268.68 103.76 267.00 101.17 267.59 98.37 Z"
     id="path32"
     style="fill:#ffffff" />
  <path
     fill="#337ab7"
     d=" M 179.38 99.56 C 183.74 98.66 188.43 100.16 192.04 102.68 C 189.94 106.01 186.05 109.10 187.43 113.63 C 188.38 116.57 190.12 120.13 193.61 120.45 C 198.85 121.57 203.05 118.13 207.38 115.95 C 205.15 120.08 201.63 123.38 197.32 125.32 C 190.24 127.25 180.44 122.56 181.89 113.95 C 181.52 109.47 185.45 106.50 187.82 103.22 C 183.17 105.79 179.82 109.99 175.85 113.40 C 174.58 108.73 174.08 101.95 179.38 99.56 Z"
     id="path34"
     style="fill:#ffffff" />
  <path
     fill="#337ab7"
     d=" M 249.03 102.35 C 254.15 100.92 259.43 100.26 264.67 99.41 C 265.74 104.09 266.13 108.89 266.17 113.69 C 262.34 110.08 259.21 105.64 254.45 103.17 C 258.02 107.98 262.31 115.12 257.74 120.76 C 251.92 129.73 237.57 124.97 234.43 115.96 C 238.47 118.18 242.48 121.45 247.48 120.39 C 250.23 119.25 252.65 117.47 255.25 116.05 C 254.50 110.94 251.73 106.60 249.03 102.35 Z"
     id="path36"
     style="fill:#ffffff" />
  <path
     fill="#337ab7"
     d=" M 212.50 117.31 C 215.18 113.37 218.26 109.72 221.44 106.18 C 225.05 110.93 227.67 116.41 231.63 120.90 C 228.29 130.04 224.62 139.11 222.50 148.64 C 221.65 149.13 220.80 149.62 219.95 150.11 C 216.88 139.80 213.29 129.67 209.79 119.50 C 213.89 119.97 217.97 120.61 221.91 121.84 C 222.95 120.67 225.02 118.34 226.06 117.17 C 224.77 116.07 222.19 113.85 220.90 112.74 C 218.16 114.36 215.41 116.00 212.50 117.31 Z"
     id="path38"
     style="fill:#ffffff" />
  <path
     fill="#337ab7"
     d=" M 169.23 130.02 C 170.38 124.51 173.87 119.81 177.22 115.41 C 180.61 121.23 183.36 130.48 192.04 129.06 C 198.16 130.20 202.66 125.34 207.07 121.97 C 208.99 125.48 210.69 129.12 212.11 132.86 C 212.55 134.23 213.25 135.90 212.12 137.14 C 208.81 141.79 203.99 145.07 199.45 148.41 C 192.71 152.58 184.66 148.05 179.32 143.66 C 175.32 139.81 170.34 135.73 169.23 130.02 Z"
     id="path40"
     style="fill:#ffffff" />
  <path
     fill="#337ab7"
     d=" M 264.46 115.55 C 267.32 119.78 270.25 124.04 272.24 128.76 C 273.57 131.03 270.62 133.18 269.97 134.94 C 264.87 142.65 256.75 149.73 247.20 150.39 C 240.23 148.70 234.62 143.19 229.77 138.19 C 227.72 133.01 231.21 128.13 233.80 123.88 C 240.15 127.71 248.31 132.36 255.62 128.61 C 259.23 124.79 261.55 119.92 264.46 115.55 Z"
     id="path42"
     style="fill:#ffffff" />
  <path
     fill="#337ab7"
     d=" M 140.90 124.23 C 147.42 122.97 148.68 129.16 150.39 133.46 C 147.91 134.16 145.45 134.91 143.00 135.71 C 142.28 131.88 141.54 128.06 140.90 124.23 Z"
     id="path44"
     style="fill:#ffffff" />
  <path
     fill="#337ab7"
     d=" M 294.09 124.86 C 296.43 125.14 298.77 125.44 301.12 125.77 C 300.08 129.09 299.07 132.42 298.09 135.76 C 296.05 134.96 294.00 134.20 291.94 133.47 C 292.63 130.60 293.35 127.73 294.09 124.86 Z"
     id="path46"
     style="fill:#ffffff" />
  <path
     fill="#337ab7"
     d=" M 192.98 154.03 C 201.09 154.06 207.30 148.40 213.99 144.66 C 219.22 152.24 220.55 161.41 219.41 170.47 C 208.34 168.88 198.02 164.59 187.54 160.96 C 191.51 164.84 196.60 167.20 201.57 169.52 C 198.32 173.05 194.92 176.49 190.88 179.14 C 192.84 168.80 186.96 158.90 178.34 153.58 C 178.24 152.93 178.05 151.62 177.96 150.97 C 182.79 152.66 187.66 155.24 192.98 154.03 Z"
     id="path48"
     style="fill:#ffffff" />
  <path
     fill="#337ab7"
     d=" M 227.20 144.81 C 232.67 147.65 237.86 151.14 243.68 153.26 C 250.55 154.61 257.58 153.64 264.19 151.60 C 253.63 163.39 237.22 167.15 222.35 170.16 C 220.02 161.23 223.00 152.59 227.20 144.81 Z"
     id="path50"
     style="fill:#ffffff" />
  <path
     fill="#337ab7"
     d=" M 239.78 169.43 C 245.09 166.76 250.35 163.98 255.77 161.52 C 253.98 164.07 251.64 166.41 250.81 169.49 C 250.42 172.78 250.39 176.10 250.42 179.41 C 246.82 176.15 243.36 172.72 239.78 169.43 Z"
     id="path52"
     style="fill:#ffffff" />
  <path
     fill="#337ab7"
     d=" M 204.10 171.04 C 208.93 172.10 213.80 172.99 218.70 173.70 C 219.74 185.11 219.77 196.56 219.39 208.00 L 214.59 208.00 C 211.33 206.90 208.16 205.56 204.96 204.31 C 205.63 199.09 206.27 193.87 206.83 188.64 C 203.99 192.23 201.34 195.95 198.62 199.63 C 196.24 196.53 193.97 193.32 192.26 189.80 C 191.15 187.97 190.17 185.03 192.47 183.51 C 196.01 179.05 200.14 175.11 204.10 171.04 Z"
     id="path54"
     style="fill:#ffffff" />
  <path
     fill="#337ab7"
     d=" M 222.94 173.96 C 227.58 172.04 233.10 171.55 237.92 172.92 C 242.73 176.61 246.42 181.62 251.13 185.47 C 248.67 190.31 245.95 195.01 243.14 199.65 C 240.49 196.25 237.92 192.81 235.18 189.48 C 235.62 194.13 236.24 198.77 236.87 203.40 C 233.85 205.12 230.77 206.72 227.54 208.00 L 221.94 208.00 C 222.00 196.66 221.28 185.21 222.94 173.96 Z"
     id="path56"
     style="fill:#ffffff" />
</svg>
