<svg width="42" height="42" fill="none" xmlns="http://www.w3.org/2000/svg"><g clip-path="url(#a)"><path d="M25.804 0v.226a4.816 4.816 0 1 1-9.631 0V0H0v42h42V0H25.804Z" fill="#fff"/><path d="M9.756 22.634h2.784l1.9 10.12h.034l2.284-10.12h2.604l2.063 10.245h.04l2.166-10.245h2.73l-3.547 14.87h-2.762l-2.046-10.12h-.054l-2.19 10.12H12.95l-3.193-14.87Zm19.744 0h4.388l4.357 14.87h-2.871l-.948-3.308h-4.999l-.731 3.309h-2.797l3.6-14.871Zm1.67 3.665-1.214 5.456h3.778L32.341 26.3H31.17Z" fill="#1E263D"/></g><defs><clipPath id="a"><path fill="#fff" d="M0 0h42v42H0z"/></clipPath></defs></svg>