<?xml version="1.0" encoding="UTF-8" standalone="no"?>
<svg
   version="1.1"
   id="Layer_1"
   x="0px"
   y="0px"
   viewBox="0 0 42.000001 31.2"
   xml:space="preserve"
   sodipodi:docname="www.svg"
   inkscape:version="1.1.2 (0a00cf5339, 2022-02-04)"
   width="42"
   height="31.200001"
   xmlns:inkscape="http://www.inkscape.org/namespaces/inkscape"
   xmlns:sodipodi="http://sodipodi.sourceforge.net/DTD/sodipodi-0.dtd"
   xmlns="http://www.w3.org/2000/svg"
   xmlns:svg="http://www.w3.org/2000/svg"><defs
     id="defs61" /><sodipodi:namedview
     id="namedview59"
     pagecolor="#ffffff"
     bordercolor="#666666"
     borderopacity="1.0"
     inkscape:pageshadow="2"
     inkscape:pageopacity="0.0"
     inkscape:pagecheckerboard="0"
     showgrid="false"
     inkscape:zoom="4.2625466"
     inkscape:cx="64.515424"
     inkscape:cy="51.61234"
     inkscape:window-width="1920"
     inkscape:window-height="1004"
     inkscape:window-x="0"
     inkscape:window-y="39"
     inkscape:window-maximized="1"
     inkscape:current-layer="Layer_1" /><style
     type="text/css"
     id="style52">.st0{fill-rule:evenodd;clip-rule:evenodd;}</style><g
     id="g56"
     style="fill:#ffffff"
     transform="scale(0.34179688)"><path
       class="st0"
       d="m 14.85,45.46 h 6.65 l 2.39,12.65 3.5,-12.65 h 6.6 l 3.53,12.67 2.41,-12.67 h 6.62 l -5,22.68 H 34.68 L 30.7,53.86 26.75,68.14 H 19.89 Z M 8.32,0 h 106.24 c 4.58,0 8.32,3.74 8.32,8.32 v 74.62 c 0,4.57 -3.74,8.32 -8.32,8.32 H 8.32 C 3.74,91.26 0,87.51 0,82.94 V 8.32 C 0,3.74 3.74,0 8.32,0 Z M 117.97,23.29 H 5.29 v 60.46 c 0,0.64 0.25,1.2 0.67,1.63 0.42,0.42 0.99,0.67 1.63,0.67 h 108.04 c 0.64,0 1.2,-0.25 1.63,-0.67 0.43,-0.43 0.67,-0.99 0.67,-1.63 V 23.29 Z M 106.64,9.35 c 2.27,0 4.11,1.84 4.11,4.11 0,2.27 -1.84,4.11 -4.11,4.11 -2.27,0 -4.11,-1.84 -4.11,-4.11 0,-2.27 1.85,-4.11 4.11,-4.11 z m -27.84,0 c 2.27,0 4.11,1.84 4.11,4.11 0,2.27 -1.84,4.11 -4.11,4.11 -2.27,0 -4.11,-1.84 -4.11,-4.11 0,-2.27 1.84,-4.11 4.11,-4.11 z m 13.92,0 c 2.27,0 4.11,1.84 4.11,4.11 0,2.27 -1.84,4.11 -4.11,4.11 -2.27,0 -4.11,-1.84 -4.11,-4.11 0,-2.27 1.84,-4.11 4.11,-4.11 z M 78.3,45.46 h 6.65 l 2.39,12.65 3.5,-12.65 h 6.6 l 3.53,12.67 2.41,-12.67 H 110 l -5,22.68 H 98.13 L 94.15,53.86 90.2,68.14 h -6.86 z m -31.72,0 h 6.65 l 2.39,12.65 3.5,-12.65 h 6.6 l 3.53,12.67 2.41,-12.67 h 6.62 l -5,22.68 H 66.41 L 62.43,53.86 58.48,68.14 h -6.86 z"
       id="path54"
       style="fill:#ffffff" /></g></svg>
